<svg width="18" height="19" viewBox="0 0 18 19" fill="none" xmlns="http://www.w3.org/2000/svg">
<path d="M5.92335 9.52347C5.92335 7.88878 7.24816 6.56326 8.88285 6.56326C10.5175 6.56326 11.8431 7.88878 11.8431 9.52347C11.8431 11.1582 10.5175 12.4837 8.88285 12.4837C7.24816 12.4837 5.92335 11.1582 5.92335 9.52347ZM4.32312 9.52347C4.32312 12.0418 6.3645 14.0832 8.88285 14.0832C11.4012 14.0832 13.4426 12.0418 13.4426 9.52347C13.4426 7.00513 11.4012 4.96374 8.88285 4.96374C6.3645 4.96374 4.32319 7.00498 4.32319 9.52347H4.32312ZM12.5576 4.78295C12.5575 4.9937 12.6199 5.19975 12.7369 5.37503C12.8539 5.55031 13.0203 5.68696 13.215 5.76769C13.4097 5.84841 13.6239 5.8696 13.8306 5.82857C14.0374 5.78754 14.2273 5.68612 14.3763 5.53716C14.5254 5.38819 14.627 5.19836 14.6682 4.99168C14.7094 4.78499 14.6884 4.57073 14.6078 4.37598C14.5272 4.18124 14.3907 4.01476 14.2155 3.8976C14.0403 3.78044 13.8343 3.71787 13.6236 3.71778H13.6232C13.3407 3.71791 13.0698 3.83016 12.87 4.02988C12.6702 4.2296 12.5578 4.50045 12.5576 4.78295ZM5.29536 16.7516C4.4296 16.7122 3.95904 16.5679 3.64632 16.4461C3.23174 16.2847 2.93593 16.0925 2.62492 15.7819C2.31391 15.4713 2.12139 15.1758 1.9607 14.7612C1.8388 14.4486 1.69459 13.9779 1.65523 13.1122C1.61218 12.1762 1.60359 11.895 1.60359 9.52361C1.60359 7.15225 1.61289 6.87186 1.65523 5.93506C1.69466 5.0693 1.83994 4.59952 1.9607 4.28603C2.1221 3.87144 2.31434 3.57563 2.62492 3.26462C2.9355 2.95361 3.23103 2.7611 3.64632 2.6004C3.9589 2.4785 4.4296 2.33429 5.29536 2.29493C6.23138 2.25189 6.51255 2.24329 8.88285 2.24329C11.2531 2.24329 11.5346 2.25245 12.4714 2.29508C13.3372 2.3345 13.8069 2.47978 14.1204 2.60055C14.535 2.76124 14.8308 2.95418 15.1418 3.26476C15.4528 3.57535 15.6447 3.87158 15.8061 4.28617C15.928 4.59874 16.0722 5.06945 16.1115 5.9352C16.1546 6.872 16.1632 7.15239 16.1632 9.52376C16.1632 11.8951 16.1546 12.1755 16.1115 13.1123C16.0721 13.9781 15.9272 14.4486 15.8061 14.7613C15.6447 15.1759 15.4524 15.4717 15.1418 15.782C14.8313 16.0923 14.535 16.2849 14.1204 16.4463C13.8079 16.5682 13.3372 16.7124 12.4714 16.7517C11.5354 16.7948 11.2542 16.8034 8.88285 16.8034C6.51148 16.8034 6.23109 16.7948 5.29536 16.7517V16.7516ZM5.22184 0.697332C4.27651 0.740381 3.63055 0.890274 3.06643 1.10979C2.48256 1.33647 1.98763 1.64059 1.49341 2.13403C0.999185 2.62747 0.695848 3.12247 0.469161 3.70705C0.249649 4.27153 0.0997564 4.91714 0.0567065 5.86246C0.0129463 6.80927 0.00292969 7.11197 0.00292969 9.52347C0.00292969 11.935 0.0129463 12.2377 0.0567065 13.1845C0.0997564 14.1299 0.249649 14.7754 0.469161 15.3399C0.695848 15.9238 0.999256 16.4197 1.49341 16.9129C1.98756 17.4061 2.48185 17.7098 3.06643 17.9372C3.63162 18.1567 4.27651 18.3066 5.22184 18.3496C6.16915 18.3927 6.47135 18.4034 8.88285 18.4034C11.2943 18.4034 11.597 18.3934 12.5439 18.3496C13.4893 18.3066 14.1348 18.1567 14.6993 17.9372C15.2831 17.7098 15.7781 17.4063 16.2723 16.9129C16.7665 16.4195 17.0692 15.9238 17.2965 15.3399C17.516 14.7754 17.6666 14.1298 17.709 13.1845C17.752 12.237 17.7621 11.935 17.7621 9.52347C17.7621 7.11197 17.752 6.80927 17.709 5.86246C17.6659 4.91707 17.516 4.27118 17.2965 3.70705C17.0692 3.12318 16.7657 2.62825 16.2723 2.13403C15.7788 1.63981 15.2831 1.33647 14.7 1.10979C14.1348 0.890274 13.4892 0.739671 12.5446 0.697332C11.5976 0.654069 11.2951 0.643555 8.88391 0.643555C6.47277 0.643555 6.1695 0.653571 5.22219 0.697332" fill="#0E8BFF"/>
</svg>
