<svg width="129" height="127" viewBox="0 0 129 127" fill="none" xmlns="http://www.w3.org/2000/svg">
<g clip-path="url(#clip0_1_14375)" filter="url(#filter0_d_1_14375)">
<path d="M90.4725 51.8296L14.6748 51.8296C13.7176 51.8296 12.8012 52.2116 12.1273 52.8917C11.4535 53.5717 11.0773 54.494 11.0816 55.4557L11.2919 102.595C11.2962 103.557 11.6806 104.48 12.3605 105.16C13.0404 105.84 13.9602 106.222 14.9175 106.222H90.7152C91.6725 106.222 92.5888 105.84 93.2627 105.16C93.9366 104.48 94.3127 103.557 94.3084 102.595L94.0981 55.4557C94.0938 54.494 93.7095 53.5717 93.0295 52.8917C92.3496 52.2116 91.4298 51.8296 90.4725 51.8296ZM21.9584 66.3341C21.2445 66.3341 20.5457 66.1215 19.9504 65.723C19.355 65.3246 18.8899 64.7583 18.6137 64.0957C18.3376 63.4331 18.2629 62.704 18.399 62.0006C18.5351 61.2972 18.876 60.6511 19.3785 60.1439C19.881 59.6368 20.5226 59.2915 21.2222 59.1515C21.9217 59.0116 22.6478 59.0834 23.3085 59.3579C23.9693 59.6323 24.5351 60.0971 24.9343 60.6934C25.3336 61.2897 25.5484 61.9908 25.5516 62.708C25.5559 63.6697 25.1797 64.592 24.5059 65.2721C23.832 65.9521 22.9157 66.3341 21.9584 66.3341ZM52.7435 89.904C50.6019 89.904 48.5055 89.266 46.7195 88.0707C44.9335 86.8753 43.538 85.1764 42.7096 83.1886C41.8812 81.2008 41.657 79.0135 42.0654 76.9033C42.4738 74.7931 43.4964 72.8548 45.004 71.3334C46.5115 69.812 48.4363 68.776 50.5349 68.3562C52.6335 67.9365 54.8117 68.1519 56.794 68.9753C58.7762 69.7986 60.4736 71.1929 61.6714 72.9819C62.8692 74.7708 63.5137 76.8741 63.5233 79.0256C63.5361 81.9107 62.4076 84.6777 60.3861 86.7178C58.3645 88.7579 55.6154 89.904 52.7435 89.904ZM83.464 98.9694C82.7501 98.9694 82.0513 98.7567 81.456 98.3583C80.8607 97.9598 80.3955 97.3935 80.1194 96.7309C79.8432 96.0683 79.7685 95.3392 79.9046 94.6358C80.0407 93.9324 80.3816 93.2863 80.8841 92.7792C81.3867 92.272 82.0283 91.9267 82.7278 91.7868C83.4273 91.6469 84.1534 91.7187 84.8141 91.9931C85.4749 92.2676 86.0407 92.7323 86.44 93.3287C86.8392 93.925 87.054 94.626 87.0572 95.3432C87.0615 96.3049 86.6854 97.2273 86.0115 97.9073C85.3376 98.5873 84.4213 98.9694 83.464 98.9694Z" fill="#0E8BFF"/>
</g>
<g clip-path="url(#clip1_1_14375)" filter="url(#filter1_d_1_14375)">
<path d="M114.804 18.6948L48.5281 18.6948C47.691 18.6948 46.8872 19.0292 46.2935 19.6244C45.6997 20.2195 45.3646 21.0267 45.3619 21.8684L45.2292 63.1253C45.2265 63.967 45.5564 64.7742 46.1464 65.3693C46.7363 65.9645 47.538 66.2989 48.375 66.2989H114.651C115.488 66.2989 116.292 65.9645 116.885 65.3693C117.479 64.7742 117.814 63.967 117.817 63.1253L117.95 21.8684C117.952 21.0267 117.622 20.2195 117.033 19.6244C116.443 19.0292 115.641 18.6948 114.804 18.6948ZM54.7992 31.3892C54.175 31.3892 53.5655 31.2031 53.0476 30.8544C52.5297 30.5057 52.1268 30.01 51.8898 29.4301C51.6528 28.8502 51.5923 28.2121 51.7161 27.5965C51.8398 26.9809 52.1422 26.4154 52.585 25.9716C53.0278 25.5277 53.5911 25.2255 54.2037 25.103C54.8163 24.9806 55.4507 25.0434 56.0266 25.2836C56.6025 25.5238 57.0941 25.9306 57.4392 26.4525C57.7843 26.9744 57.9674 27.588 57.9654 28.2156C57.9627 29.0573 57.6276 29.8645 57.0338 30.4597C56.4401 31.0549 55.6363 31.3892 54.7992 31.3892ZM81.5588 52.0176C79.6863 52.0176 77.8575 51.4593 76.3039 50.4131C74.7502 49.3669 73.5415 47.88 72.8305 46.1403C72.1195 44.4006 71.9381 42.4863 72.3094 40.6394C72.6806 38.7926 73.5878 37.0961 74.9162 35.7646C76.2446 34.4331 77.9346 33.5263 79.7724 33.159C81.6102 32.7916 83.5132 32.9802 85.241 33.7008C86.9687 34.4214 88.4435 35.6417 89.4788 37.2074C90.5141 38.7731 91.0635 40.6138 91.0574 42.4968C91.0493 45.0219 90.044 47.4436 88.2627 49.2291C86.4813 51.0146 84.0699 52.0176 81.5588 52.0176ZM108.359 59.9517C107.735 59.9517 107.125 59.7655 106.608 59.4168C106.09 59.0681 105.687 58.5724 105.45 57.9925C105.213 57.4126 105.152 56.7745 105.276 56.1589C105.4 55.5433 105.702 54.9778 106.145 54.534C106.588 54.0901 107.151 53.7879 107.764 53.6654C108.376 53.543 109.011 53.6058 109.587 53.846C110.163 54.0862 110.654 54.493 110.999 55.0149C111.344 55.5368 111.527 56.1504 111.525 56.7781C111.523 57.6197 111.188 58.427 110.594 59.0221C110 59.6173 109.196 59.9517 108.359 59.9517Z" fill="#0E8BFF"/>
</g>
<defs>
<filter id="filter0_d_1_14375" x="-19" y="19.3247" width="143.389" height="143.401" filterUnits="userSpaceOnUse" color-interpolation-filters="sRGB">
<feFlood flood-opacity="0" result="BackgroundImageFix"/>
<feColorMatrix in="SourceAlpha" type="matrix" values="0 0 0 0 0 0 0 0 0 0 0 0 0 0 0 0 0 0 127 0" result="hardAlpha"/>
<feOffset dy="12"/>
<feGaussianBlur stdDeviation="15"/>
<feColorMatrix type="matrix" values="0 0 0 0 0.149531 0 0 0 0 0.183606 0 0 0 0 0.3625 0 0 0 0.04 0"/>
<feBlend mode="normal" in2="BackgroundImageFix" result="effect1_dropShadow_1_14375"/>
<feBlend mode="normal" in="SourceGraphic" in2="effect1_dropShadow_1_14375" result="shape"/>
</filter>
<filter id="filter1_d_1_14375" x="15.1777" y="-12" width="132.822" height="132.993" filterUnits="userSpaceOnUse" color-interpolation-filters="sRGB">
<feFlood flood-opacity="0" result="BackgroundImageFix"/>
<feColorMatrix in="SourceAlpha" type="matrix" values="0 0 0 0 0 0 0 0 0 0 0 0 0 0 0 0 0 0 127 0" result="hardAlpha"/>
<feOffset dy="12"/>
<feGaussianBlur stdDeviation="15"/>
<feColorMatrix type="matrix" values="0 0 0 0 0.149531 0 0 0 0 0.183606 0 0 0 0 0.3625 0 0 0 0.04 0"/>
<feBlend mode="normal" in2="BackgroundImageFix" result="effect1_dropShadow_1_14375"/>
<feBlend mode="normal" in="SourceGraphic" in2="effect1_dropShadow_1_14375" result="shape"/>
</filter>
<clipPath id="clip0_1_14375">
<rect width="83.0165" height="83.402" fill="white" transform="matrix(1 0 0.00446086 0.99999 11 37.3247)"/>
</clipPath>
<clipPath id="clip1_1_14375">
<rect width="72.5878" height="72.9932" fill="white" transform="matrix(1 0 -0.00321541 0.999995 45.4121 6)"/>
</clipPath>
</defs>
</svg>
