<svg width="18" height="17" viewBox="0 0 18 17" fill="none" xmlns="http://www.w3.org/2000/svg">
<path d="M0.762695 2.27691C0.762695 1.72902 0.955107 1.27702 1.33992 0.920904C1.72472 0.564775 2.22499 0.386719 2.84069 0.386719C3.4454 0.386719 3.93465 0.56203 4.30847 0.912686C4.69328 1.27429 4.88569 1.74546 4.88569 2.32622C4.88569 2.85219 4.69879 3.29048 4.32497 3.64114C3.94016 4.00274 3.4344 4.18354 2.8077 4.18354H2.79121C2.1865 4.18354 1.69725 4.00274 1.32342 3.64114C0.949599 3.27954 0.762695 2.82479 0.762695 2.27691ZM0.977091 16.6588V5.67926H4.63831V16.6588H0.977091ZM6.66683 16.6588H10.3281V10.528C10.3281 10.1445 10.372 9.84863 10.46 9.64045C10.6139 9.26788 10.8475 8.95284 11.1609 8.69535C11.4742 8.43784 11.8673 8.30909 12.3401 8.30909C13.5715 8.30909 14.1872 9.13639 14.1872 10.791V16.6588H17.8484V10.3637C17.8484 8.74192 17.4636 7.51193 16.694 6.67367C15.9243 5.83541 14.9073 5.41628 13.6429 5.41628C12.2246 5.41628 11.1197 6.02443 10.3281 7.24072V7.2736H10.3116L10.3281 7.24072V5.67926H6.66683C6.68881 6.0299 6.69981 7.12018 6.69981 8.95012C6.69981 10.78 6.68881 13.3496 6.66683 16.6588Z" fill="#0E8BFF"/>
</svg>
