<svg width="54" height="54" viewBox="0 0 54 54" fill="none" xmlns="http://www.w3.org/2000/svg">
<rect width="54" height="54" rx="16" fill="#0E8BFF"/>
<path d="M30.7747 19.8992H24.3047V14.5075C24.3047 13.6495 24.6455 12.8267 25.2522 12.22C25.8589 11.6133 26.6817 11.2725 27.5397 11.2725C28.3977 11.2725 29.2205 11.6133 29.8272 12.22C30.4339 12.8267 30.7747 13.6495 30.7747 14.5075V19.8992Z" stroke="white" stroke-width="1.5" stroke-linecap="round" stroke-linejoin="round"/>
<path d="M15.6776 37.1524V40.3874L13.5209 43.6224L11.3643 40.3874V24.2123C11.3643 23.6404 11.5915 23.0918 11.9959 22.6873C12.4004 22.2829 12.9489 22.0557 13.5209 22.0557C14.0929 22.0557 14.6415 22.2829 15.0459 22.6873C15.4504 23.0918 15.6776 23.6404 15.6776 24.2123V30.6824" stroke="white" stroke-width="1.5" stroke-linecap="round" stroke-linejoin="round"/>
<path d="M11.3643 37.1523H17.8343L30.7743 19.8989L41.158 35.0028C41.5554 35.5811 41.7139 36.2906 41.6003 36.9831C41.4867 37.6755 41.1098 38.2971 40.5484 38.7181C40.2586 38.9356 39.9282 39.0929 39.5766 39.1808C39.2251 39.2687 38.8595 39.2855 38.5014 39.23C38.1433 39.1745 37.7999 39.048 37.4915 38.8579C37.183 38.6677 36.9157 38.4178 36.7052 38.1228L27.1526 24.7284" stroke="white" stroke-width="1.5" stroke-linecap="round" stroke-linejoin="round"/>
<path d="M24.3043 19.8989L15.6777 30.6823" stroke="white" stroke-width="1.5" stroke-linecap="round" stroke-linejoin="round"/>
<path d="M40.5479 38.7183L42.6355 41.4659" stroke="white" stroke-width="1.5" stroke-linecap="round" stroke-linejoin="round"/>
<path d="M11.3643 30.6826H15.6776" stroke="white" stroke-width="1.5" stroke-linecap="round" stroke-linejoin="round"/>
</svg>
