<svg width="20" height="17" viewBox="0 0 20 17" fill="none" xmlns="http://www.w3.org/2000/svg">
<path d="M13.6038 0.669016V0.665527H14.5081L14.8385 0.731803C15.0588 0.774829 15.2588 0.831215 15.4385 0.900979C15.6182 0.970742 15.7921 1.05214 15.9602 1.14515C16.1283 1.23816 16.2808 1.33294 16.4176 1.42944C16.5532 1.52479 16.6749 1.62594 16.7828 1.73291C16.8894 1.84104 17.0558 1.86895 17.2818 1.81662C17.5079 1.7643 17.7514 1.69162 18.0122 1.59861C18.2731 1.5056 18.531 1.40096 18.7861 1.28468C19.0411 1.1684 19.1965 1.09457 19.2521 1.06318C19.3066 1.03063 19.3356 1.01319 19.3391 1.01086L19.3426 1.00562L19.3599 0.996903L19.3773 0.988183L19.3947 0.979462L19.4121 0.970742L19.4156 0.96551L19.4208 0.962022L19.426 0.958533L19.4295 0.953301L19.4469 0.948069L19.4643 0.944581L19.4608 0.970742L19.4556 0.996903L19.4469 1.02306L19.4382 1.04923L19.4295 1.06667L19.4208 1.08411L19.4121 1.11027C19.4063 1.12771 19.4005 1.15096 19.3947 1.18003C19.3889 1.20911 19.3339 1.32537 19.2295 1.52885C19.1252 1.73233 18.9948 1.93871 18.8382 2.148C18.6817 2.35729 18.5415 2.51541 18.4174 2.62239C18.2922 2.73052 18.2093 2.80609 18.1687 2.84912C18.1282 2.8933 18.0789 2.93399 18.0209 2.97121L17.934 3.02876L17.9166 3.03748L17.8992 3.0462L17.8957 3.05143L17.8905 3.05492L17.8853 3.05841L17.8818 3.06364L17.8644 3.07236L17.847 3.08108L17.8436 3.08632L17.8383 3.0898L17.8331 3.09329L17.8296 3.09852L17.8262 3.10376L17.8209 3.10724L17.8157 3.11073L17.8122 3.11597H17.8992L18.3861 3.01132C18.7107 2.94156 19.0208 2.85727 19.3165 2.75843L19.786 2.60146L19.8382 2.58402L19.8643 2.5753L19.8817 2.56658L19.899 2.55786L19.9164 2.54914L19.9338 2.54042L19.9686 2.53519L20.0034 2.5317V2.56658L19.9947 2.57007L19.986 2.5753L19.9825 2.58053L19.9773 2.58402L19.9721 2.58751L19.9686 2.59274L19.9651 2.59797L19.9599 2.60146L19.9547 2.60495L19.9512 2.61018L19.9478 2.61541L19.9425 2.6189L19.9338 2.63634L19.9251 2.65378L19.9199 2.65727C19.9176 2.66076 19.844 2.75958 19.6991 2.95377C19.5541 3.1491 19.4759 3.24792 19.4643 3.25026C19.4527 3.25375 19.4365 3.27119 19.4156 3.30258C19.3959 3.33513 19.273 3.46478 19.0469 3.69151C18.8209 3.91824 18.5994 4.11996 18.3826 4.29671C18.1647 4.47461 18.0545 4.69319 18.0522 4.95249C18.0488 5.21061 18.0354 5.50247 18.0122 5.82802C17.989 6.15358 17.9456 6.5053 17.8818 6.88319C17.818 7.26108 17.7195 7.68838 17.5862 8.16509C17.4528 8.6418 17.2905 9.10689 17.0992 9.56036C16.9079 10.0138 16.708 10.4208 16.4993 10.7812C16.2906 11.1417 16.0993 11.4469 15.9254 11.6969C15.7515 11.9468 15.5747 12.1823 15.395 12.4032C15.2153 12.6241 14.9881 12.873 14.7133 13.1497C14.4374 13.4252 14.2867 13.5764 14.2612 13.6031C14.2345 13.6287 14.1209 13.7241 13.9203 13.8892C13.7209 14.0554 13.5064 14.2217 13.2769 14.388C13.0485 14.5531 12.8387 14.6909 12.6474 14.8013C12.4561 14.9118 12.2254 15.0379 11.9552 15.1798C11.6863 15.3228 11.3953 15.4554 11.0823 15.5774C10.7692 15.6995 10.4388 15.8129 10.091 15.9175C9.74323 16.0222 9.40703 16.1036 9.08241 16.1617C8.7578 16.2198 8.38971 16.2693 7.97814 16.31L7.36079 16.371V16.3797H6.23043V16.371L6.08262 16.3623C5.98408 16.3565 5.90292 16.3507 5.83915 16.3448C5.7754 16.339 5.53483 16.307 5.11747 16.2489C4.7001 16.1908 4.3726 16.1326 4.13493 16.0745C3.89727 16.0164 3.54366 15.9059 3.07413 15.7431C2.6046 15.5804 2.20289 15.4158 1.869 15.2496C1.53627 15.0844 1.32759 14.9798 1.24295 14.9356C1.15948 14.8926 1.06558 14.8391 0.961235 14.7752L0.804724 14.6792L0.801263 14.674L0.796029 14.6705L0.790812 14.667L0.787334 14.6618L0.769944 14.6531L0.752554 14.6444L0.749093 14.6391L0.743859 14.6356L0.738642 14.6322L0.735164 14.6269L0.731703 14.6217L0.726468 14.6182H0.717773V14.5833L0.735164 14.5868L0.752554 14.592L0.830809 14.6008C0.882979 14.6066 1.025 14.6153 1.25687 14.6269C1.48875 14.6386 1.73509 14.6386 1.99594 14.6269C2.2568 14.6153 2.52346 14.5891 2.79589 14.5484C3.06834 14.5077 3.39006 14.438 3.76104 14.3391C4.13204 14.2403 4.47288 14.1229 4.78359 13.9868C5.09314 13.8497 5.3134 13.7473 5.44442 13.6799C5.57425 13.6136 5.7725 13.4904 6.03914 13.3101L6.43911 13.0398L6.44259 13.0346L6.44781 13.0311L6.45304 13.0276L6.4565 13.0224L6.45998 13.0171L6.4652 13.0136L6.47043 13.0102L6.47389 13.0049L6.49128 12.9997L6.50867 12.9962L6.51215 12.9788L6.51737 12.9613L6.5226 12.9578L6.52606 12.9526L6.38694 12.9439C6.2942 12.9381 6.20435 12.9322 6.1174 12.9264C6.03045 12.9206 5.89423 12.8945 5.70873 12.848C5.52325 12.8014 5.32326 12.7317 5.10877 12.6387C4.8943 12.5457 4.68562 12.4352 4.48273 12.3073C4.27986 12.1794 4.13319 12.073 4.04276 11.9881C3.9535 11.9044 3.83756 11.7858 3.69496 11.6323C3.55352 11.4777 3.43063 11.319 3.32629 11.1562C3.22195 10.9934 3.12225 10.8056 3.02719 10.5929L2.88284 10.2754L2.87414 10.2493L2.86545 10.2231L2.86023 10.2057L2.85675 10.1882L2.88284 10.1917L2.90892 10.1969L3.10022 10.2231C3.22775 10.2405 3.42774 10.2464 3.70017 10.2405C3.97262 10.2347 4.16101 10.2231 4.26535 10.2057C4.36969 10.1882 4.43346 10.1766 4.45664 10.1708L4.49142 10.1621L4.5349 10.1533L4.57837 10.1446L4.58185 10.1394L4.58707 10.1359L4.5923 10.1324L4.59576 10.1272L4.56098 10.1185L4.5262 10.1097L4.49142 10.101L4.45664 10.0923L4.42186 10.0836C4.39868 10.0778 4.35811 10.0661 4.30013 10.0487C4.24217 10.0313 4.08566 9.9673 3.8306 9.85685C3.57556 9.7464 3.37267 9.63884 3.22195 9.53419C3.07085 9.42925 2.92679 9.31447 2.79067 9.19061C2.65503 9.06504 2.50607 8.90341 2.34375 8.70576C2.18145 8.5081 2.03653 8.27845 1.90899 8.01684C1.78147 7.75523 1.68583 7.50525 1.62206 7.26689C1.55855 7.02992 1.51664 6.78766 1.49687 6.54309L1.46555 6.17683L1.48294 6.18032L1.50033 6.18555L1.51772 6.19427L1.53511 6.20299L1.5525 6.21171L1.56989 6.22044L1.83943 6.34252C2.01914 6.42392 2.24231 6.49368 2.50895 6.55181C2.77561 6.60994 2.93501 6.64193 2.98718 6.64774L3.06544 6.65646H3.22195L3.21849 6.65122L3.21325 6.64774L3.20803 6.64425L3.20456 6.63902L3.2011 6.63378L3.19586 6.63029L3.19064 6.62681L3.18717 6.62157L3.16978 6.61285L3.15239 6.60413L3.14893 6.5989L3.14369 6.59541L3.13847 6.59192L3.135 6.58669L3.11761 6.57797L3.10022 6.56925L3.09676 6.56402C3.09328 6.56168 3.04342 6.52448 2.94718 6.4524C2.85211 6.37915 2.75241 6.28439 2.64807 6.16811C2.54373 6.05183 2.43939 5.92975 2.33505 5.80186C2.23052 5.67367 2.13741 5.53652 2.05681 5.39199C1.97567 5.24666 1.88987 5.06177 1.79944 4.83738C1.71017 4.61413 1.64235 4.38915 1.59597 4.16242C1.54961 3.93568 1.52353 3.71187 1.51772 3.49094C1.51193 3.27002 1.51772 3.08108 1.53511 2.92412C1.5525 2.76715 1.58728 2.58983 1.63945 2.39217C1.69162 2.19451 1.76699 1.98522 1.86552 1.7643L2.01334 1.43292L2.02203 1.40676L2.03073 1.3806L2.03596 1.37711L2.03942 1.37188L2.0429 1.36665L2.04812 1.36316L2.05335 1.36665L2.05681 1.37188L2.06029 1.37711L2.06551 1.3806L2.07074 1.38409L2.0742 1.38932L2.07768 1.39455L2.0829 1.39804L2.09159 1.41548L2.10029 1.43292L2.10552 1.43641L2.10898 1.44164L2.34375 1.70326C2.50026 1.87767 2.68576 2.07243 2.90023 2.28753C3.11472 2.50262 3.23355 2.61424 3.25673 2.62239C3.27992 2.63169 3.3089 2.65842 3.34368 2.70262C3.37846 2.74564 3.4944 2.84855 3.69148 3.01132C3.88858 3.1741 4.14653 3.36305 4.46534 3.57815C4.78417 3.79325 5.13776 4.00545 5.52613 4.21474C5.91452 4.42403 6.33189 4.61297 6.77822 4.78157C7.22457 4.95017 7.53759 5.06062 7.71728 5.11294C7.89699 5.16526 8.20421 5.23211 8.63896 5.31351C9.07371 5.39491 9.40124 5.44723 9.6215 5.47048C9.84178 5.49373 9.9925 5.5071 10.0736 5.51059L10.1954 5.51408L10.1919 5.48792L10.1867 5.46176L10.1519 5.24375C10.1287 5.09841 10.1171 4.89493 10.1171 4.63332C10.1171 4.37171 10.1374 4.13045 10.178 3.90952C10.2186 3.6886 10.2794 3.46478 10.3606 3.23805C10.4417 3.01132 10.5212 2.82934 10.5988 2.69215C10.6777 2.55611 10.7808 2.40089 10.9084 2.22648C11.0359 2.05207 11.2011 1.87186 11.404 1.68582C11.6069 1.49978 11.8387 1.33409 12.0996 1.18875C12.3604 1.04342 12.601 0.932948 12.8213 0.857377C13.0416 0.781805 13.2271 0.732378 13.3778 0.709129C13.5285 0.685881 13.6038 0.672504 13.6038 0.669016Z" fill="#0E8BFF"/>
</svg>
