<svg width="21" height="21" viewBox="0 0 21 21" fill="none" xmlns="http://www.w3.org/2000/svg">
<g clip-path="url(#clip0_2807_2803)">
<path d="M20.0069 8.35734V4.49444C18.1979 4.49444 16.8173 4.01158 15.9264 3.07306C15.012 2.00195 14.4997 0.645518 14.4778 -0.762635V-1.04147L10.8258 -1.12988C10.8258 -1.12988 10.8258 -0.973462 10.8258 -0.762635V14.5597C10.7005 15.2443 10.3682 15.8739 9.87372 16.3636C9.37927 16.8533 8.74647 17.1795 8.06074 17.2982C7.37502 17.4169 6.66939 17.3223 6.03912 17.0273C5.40885 16.7322 4.88429 16.2509 4.53624 15.6482C4.1882 15.0456 4.03343 14.3507 4.09284 13.6573C4.15225 12.9639 4.42297 12.3055 4.86846 11.7708C5.31394 11.2362 5.91274 10.8511 6.58402 10.6676C7.2553 10.484 7.96672 10.5108 8.62227 10.7444V7.00396C8.24005 6.94133 7.85343 6.90949 7.46612 6.90875C6.07261 6.90875 4.71039 7.32197 3.55173 8.09616C2.39307 8.87036 1.49001 9.97075 0.956736 11.2582C0.423463 12.5456 0.283935 13.9623 0.555795 15.329C0.827655 16.6957 1.49869 17.9512 2.48405 18.9365C3.46941 19.9219 4.72484 20.5929 6.09157 20.8648C7.4583 21.1366 8.87496 20.9971 10.1624 20.4638C11.4498 19.9306 12.5502 19.0275 13.3244 17.8688C14.0986 16.7102 14.5118 15.348 14.5118 13.9545C14.5111 13.6657 14.4929 13.3773 14.4574 13.0907V6.86794C16.1181 7.90504 18.0502 8.42358 20.0069 8.35734Z" fill="#0E8BFF"/>
</g>
<defs>
<clipPath id="clip0_2807_2803">
<rect width="20.4277" height="20.4277" fill="white" transform="translate(0 0.572266)"/>
</clipPath>
</defs>
</svg>
