<svg width="22" height="15" viewBox="0 0 22 15" fill="none" xmlns="http://www.w3.org/2000/svg">
<path fill-rule="evenodd" clip-rule="evenodd" d="M19.2468 0.723921C20.1373 0.963797 20.8372 1.66371 21.0738 2.55093C21.5043 4.16106 21.5043 7.52261 21.5043 7.52261C21.5043 7.52261 21.5043 10.8842 21.0738 12.4943C20.834 13.3848 20.134 14.0847 19.2468 14.3213C17.6367 14.7518 11.1765 14.7518 11.1765 14.7518C11.1765 14.7518 4.71952 14.7518 3.1061 14.3213C2.2156 14.0814 1.51569 13.3815 1.2791 12.4943C0.848633 10.8842 0.848633 7.52261 0.848633 7.52261C0.848633 7.52261 0.848633 4.16106 1.2791 2.55093C1.51897 1.66042 2.21889 0.960511 3.1061 0.723921C4.71952 0.293457 11.1765 0.293457 11.1765 0.293457C11.1765 0.293457 17.6367 0.293457 19.2468 0.723921ZM14.4783 7.52251L9.1123 10.6212V4.42383L14.4783 7.52251Z" fill="#0E8BFF"/>
</svg>
